<?xml version="1.0" standalone="no"?>
<!DOCTYPE svg PUBLIC "-//W3C//DTD SVG 1.1//EN" "http://www.w3.org/Graphics/SVG/1.1/DTD/svg11.dtd" >
<svg xmlns="http://www.w3.org/2000/svg">
<metadata>Generated by IcoMoon</metadata>
<defs>
<font id="icomoon" horiz-adv-x="1024">
<font-face units-per-em="1024" ascent="960" descent="-64" />
<missing-glyph horiz-adv-x="1024" />
<glyph unicode="&#x20;" horiz-adv-x="512" d="" />
<glyph unicode="&#xe900;" glyph-name="home" d="M855.204 457.615c-0.135 0.002-0.295 0.004-0.454 0.004-16.050 0-29.061-13.011-29.061-29.061 0-0.167 0.001-0.333 0.004-0.5v0.025-403.456h-209.244v164.772c0 15.452-12.882 28.959-28.447 28.959h-151.357c-16.64 0-30.054-13.507-30.054-28.959v-164.731h-208.742v390.021c0 15.575-12.872 28.508-29.512 28.508-15.677-0.133-28.345-12.826-28.436-28.499v-419.573c0.092-15.682 12.76-28.376 28.424-28.508h268.301c15.677 0.133 28.345 12.826 28.436 28.499v164.74h93.368v-164.731c0-15.565 12.882-28.508 29.512-28.508h267.264c15.677 0.133 28.345 12.826 28.436 28.499v432.966c0 16.712-12.882 29.532-28.436 29.532zM1015.644 434.606l-232.888 233.882v159.416c0 16.599-13.414 29.42-30.054 29.42-15.565 0-28.447-12.82-28.447-29.42v-100.966l-192.092 193.28c-5.888 5.949-12.882 9.155-19.855 9.155-8.049 0-15.032-3.318-20.931-9.155l-482.406-482.458c-11.571-11.561-12.339-30.106 0-40.755 10.732-12.36 29.204-11.561 40.776 0l462.561 461.517 461.517-465.818c4.803-4.813 11.807-7.557 20.931-7.557 0.038 0 0.083 0 0.128 0 7.942 0 15.216 2.856 20.852 7.598l-0.049-0.040c10.701 10.762 11.5 30.228-0.041 41.902z" />
<glyph unicode="&#xe901;" glyph-name="settings" d="M894.976 537.6l-59.904 10.155c-6.229 20.139-14.251 39.595-24.064 58.112l35.328 49.408c14.933 20.992 12.629 49.749-5.717 67.925l-53.163 53.163c-9.984 9.984-23.211 15.531-37.291 15.531-11.093 0-21.589-3.413-30.464-9.813l-49.493-35.413c-19.285 10.155-39.424 18.517-60.245 24.747l-9.984 59.221c-4.267 25.515-26.197 44.032-52.053 44.032h-75.008c-25.856 0-47.787-18.517-52.053-44.032l-10.325-60.587c-19.968-6.229-39.424-14.421-57.941-24.405l-48.981 35.328c-8.875 6.4-19.627 9.813-30.635 9.813-14.080 0-27.477-5.547-37.291-15.531l-53.333-53.163c-18.176-18.176-20.651-46.848-5.717-67.925l35.669-50.091c-9.813-18.688-17.664-38.144-23.723-58.283l-59.221-9.984c-25.515-4.267-44.032-26.197-44.032-52.053v-75.008c0-25.856 18.517-47.787 44.032-52.053l60.587-10.325c6.229-19.968 14.421-39.424 24.405-57.941l-35.157-48.811c-14.933-20.992-12.629-49.749 5.717-67.925l53.163-53.163c9.984-9.984 23.211-15.531 37.291-15.531 11.093 0 21.589 3.413 30.464 9.813l50.091 35.669c18.005-9.472 36.864-17.152 56.32-23.211l9.984-59.904c4.267-25.515 26.197-44.032 52.053-44.032h75.264c25.856 0 47.787 18.517 52.053 44.032l10.155 59.904c20.139 6.229 39.595 14.251 58.112 24.064l49.408-35.328c8.875-6.4 19.627-9.813 30.635-9.813v0c14.080 0 27.307 5.547 37.291 15.531l53.163 53.163c18.176 18.176 20.651 46.848 5.717 67.925l-35.413 49.493c9.813 18.688 18.005 38.144 24.064 58.112l59.904 9.984c25.515 4.267 44.032 26.197 44.032 52.053v75.093c0.341 25.856-18.176 47.787-43.691 52.053zM890.88 410.453c0-2.304-1.621-4.267-3.925-4.608l-74.837-12.459c-9.472-1.621-16.896-8.533-19.285-17.664-6.741-26.197-17.152-51.371-30.976-74.667-4.779-8.192-4.437-18.347 1.109-26.197l44.032-62.037c1.28-1.792 1.109-4.437-0.512-6.059l-53.248-53.163c-1.28-1.28-2.475-1.451-3.413-1.451-1.109 0-1.963 0.341-2.645 0.853l-61.781 44.117c-7.68 5.547-18.005 5.888-26.197 1.109-23.381-13.909-48.469-24.235-74.667-30.976-9.301-2.304-16.213-9.984-17.664-19.285l-12.629-74.837c-0.341-2.304-2.304-3.925-4.608-3.925h-75.179c-2.304 0-4.267 1.621-4.608 3.925l-12.459 74.752c-1.621 9.472-8.533 16.896-17.664 19.285-25.515 6.571-50.091 16.725-73.045 29.952-3.755 2.133-8.021 3.243-12.117 3.243-4.779 0-9.813-1.451-13.909-4.437l-62.379-44.373c-0.853-0.512-1.792-0.853-2.645-0.853-0.683 0-2.133 0.171-3.413 1.451l-53.163 53.163c-1.621 1.621-1.792 4.096-0.512 6.059l43.861 61.525c5.547 7.851 5.888 18.176 1.109 26.368-13.909 23.211-24.576 48.299-31.403 74.496-2.475 9.131-9.984 16.043-19.285 17.664l-75.435 12.8c-2.304 0.341-3.925 2.304-3.925 4.608v75.008c0 2.304 1.621 4.267 3.925 4.608l74.325 12.459c9.472 1.621 17.152 8.533 19.456 17.835 6.571 26.197 16.725 51.541 30.464 74.837 4.779 8.192 4.267 18.347-1.28 26.027l-44.373 62.379c-1.28 1.792-1.109 4.437 0.512 6.059l53.163 53.163c1.28 1.28 2.475 1.451 3.413 1.451 1.109 0 1.963-0.341 2.645-0.853l61.525-43.861c7.851-5.547 18.176-5.888 26.368-1.109 23.211 13.909 48.299 24.576 74.496 31.403 9.131 2.475 16.043 9.984 17.664 19.285l12.8 75.435c0.341 2.304 2.304 3.925 4.608 3.925h75.008c2.304 0 4.267-1.621 4.608-3.925l12.459-74.325c1.621-9.472 8.533-17.152 17.835-19.456 26.88-6.741 52.565-17.323 76.459-31.403 8.192-4.779 18.347-4.437 26.197 1.109l61.525 44.203c0.853 0.512 1.792 0.853 2.645 0.853 0.683 0 2.133-0.171 3.413-1.451l53.163-53.163c1.621-1.621 1.792-4.096 0.512-6.059l-44.032-61.867c-5.547-7.68-5.888-18.005-1.109-26.197 13.909-23.381 24.235-48.469 30.976-74.667 2.304-9.301 9.984-16.213 19.285-17.664l74.837-12.629c2.304-0.341 3.925-2.304 3.925-4.608v-75.179zM512.085 632.235c-101.632 0-184.149-82.517-184.149-184.149s82.517-184.149 184.149-184.149 184.149 82.517 184.149 184.149-82.517 184.149-184.149 184.149zM512.085 312.064c-75.008 0-136.021 60.928-136.021 136.021s60.928 136.021 136.021 136.021 136.021-60.928 136.021-136.021-61.013-136.021-136.021-136.021z" />
<glyph unicode="&#xe902;" glyph-name="search" d="M898.219 21.333c-6.912 0-13.312 2.731-18.005 7.68l-228.949 238.080c-28.16-22.187-59.392-39.765-93.013-52.053-37.547-13.824-76.971-20.821-117.248-20.821-187.563 0-340.224 152.661-340.224 340.224 0.085 187.563 152.661 340.224 340.309 340.224s340.224-152.661 340.224-340.224c0-45.739-8.96-90.197-26.709-132.096-15.957-37.632-38.315-71.765-66.475-101.547l228.096-237.227c9.557-9.899 9.216-25.771-0.683-35.243-4.693-4.523-10.837-6.997-17.323-6.997zM441.088 824.747c-160.085 0-290.304-130.219-290.304-290.304s130.219-290.304 290.304-290.304c160.085 0 290.304 130.219 290.304 290.304s-130.219 290.304-290.304 290.304z" />
<glyph unicode="&#xe903;" glyph-name="check-o" d="M512 874.667c-235.264 0-426.667-191.403-426.667-426.667s191.403-426.667 426.667-426.667 426.667 191.403 426.667 426.667-191.403 426.667-426.667 426.667zM512 67.072c-210.005 0-380.928 170.923-380.928 380.928s170.923 380.928 380.928 380.928 380.928-170.923 380.928-380.928-170.923-380.928-380.928-380.928zM737.195 626.603c-4.181 3.755-9.643 5.803-15.189 5.803-6.485 0-12.8-2.816-17.067-7.68l-244.053-274.517-144.555 115.627c-4.011 3.243-9.131 5.035-14.251 5.035-6.997 0-13.483-3.157-17.92-8.619-7.851-9.813-6.229-24.235 3.584-32.171l161.536-129.195c4.011-3.243 9.131-5.035 14.251-5.035 6.571 0 12.8 2.816 17.067 7.68l258.389 290.731c4.096 4.523 6.144 10.411 5.717 16.555-0.256 6.144-2.987 11.776-7.509 15.787z" />
<glyph unicode="&#xe904;" glyph-name="arrow" d="M345.003 448l385.365 385.365c9.472 9.472 9.472 24.661 0 34.133s-24.661 9.472-34.133 0l-402.603-402.517c-9.472-9.472-9.472-24.661 0-34.133l402.517-402.347c4.608-4.608 10.923-7.168 16.981-7.168s12.373 2.304 16.981 7.168c9.472 9.472 9.472 24.661 0 34.133l-385.109 385.365z" />
<glyph unicode="&#xe905;" glyph-name="folder" d="M173.483 42.325c-12.288 0-22.869 9.131-24.661 21.248l-70.059 462.336c-1.109 7.168 1.024 14.507 5.803 20.053 4.693 5.461 11.605 8.619 18.859 8.619h32.085v267.093c0 17.664 14.336 32 32 32h196.523c11.179 0 21.675-5.973 27.477-15.531l33.365-55.637h432.896c17.664 0 32-14.336 32-32v-195.925h30.805c7.253 0 14.165-3.157 18.944-8.704s6.827-12.8 5.717-20.053l-70.059-462.251c-1.792-12.032-12.373-21.163-24.661-21.163h-677.035zM835.755 84.48l64.853 427.861h-777.131l64.853-427.861h647.424zM847.616 554.496v185.771h-428.459c-11.179 0-21.675 5.973-27.477 15.531l-33.365 55.723h-180.651v-256.939h7.424v57.003h7.424v42.752h14.251v42.752h611.84v-42.752h14.251v-42.752h9.131v-57.003h5.632zM804.949 554.496v14.848h-584.533v-14.848h584.533zM790.699 606.293v10.923h-556.117v-10.923h556.117zM776.448 647.68v13.653h-527.616v-13.653h527.616z" />
<glyph unicode="&#xe906;" glyph-name="logout" d="M529.347 901.325h267.080c72.581 0 131.482-59.105 131.482-131.482v-643.686c0-72.581-59.105-131.482-131.482-131.482h-271.432c-16.203 0-29.338-13.135-29.338-29.338s13.135-29.338 29.338-29.338h271.432c104.96 0 190.157 85.402 190.157 190.157v643.686c0 104.96-85.402 190.157-190.157 190.157h-267.080c-16.203 0-29.338-13.135-29.338-29.338s13.135-29.338 29.338-29.338v0zM46.080 427.356l186.368-186.46c5.293-5.21 12.562-8.426 20.581-8.426 16.208 0 29.348 13.139 29.348 29.348 0 8.020-3.217 15.288-8.43 20.585l-136.424 136.475h595.231c16.203 0 29.338 13.135 29.338 29.338s-13.135 29.338-29.338 29.338h-595.231l136.468 136.479c5.272 5.32 8.529 12.643 8.529 20.727 0 16.167-13.028 29.292-29.158 29.449h-0.015c-0.023 0-0.051 0-0.078 0-8.064 0-15.35-3.329-20.559-8.687l-0.006-0.007-186.46-186.429c-5.435-5.326-8.804-12.742-8.804-20.945 0-8.122 3.303-15.473 8.639-20.782l0.001-0.001z" />
<glyph unicode="&#xe907;" glyph-name="book" d="M512 627.797c7.509 0 13.653 6.059 13.653 13.653v54.443c0 7.509-6.059 13.653-13.653 13.653-7.509 0-13.653-6.059-13.653-13.653v-54.443c0-7.509 6.144-13.653 13.653-13.653zM512 223.232c7.509 0 13.653 6.059 13.653 13.653v350.123c0 7.509-6.059 13.653-13.653 13.653-7.509 0-13.653-6.059-13.653-13.653v-350.123c0-7.595 6.144-13.653 13.653-13.653zM925.013 737.536c-7.509 0-13.653-6.059-13.653-13.653v-570.197h-347.307c-6.997 0-13.483-3.328-17.579-8.875l-11.691-13.653h-45.824l-11.691 13.653c-4.096 5.632-10.581 8.875-17.579 8.875h-347.136v570.197c0 7.509-6.059 13.653-13.653 13.653s-13.653-6.059-13.653-13.653v-583.765c0-7.509 6.059-13.653 13.653-13.653h358.315l15.275-17.749c2.56-2.987 6.4-4.779 10.325-4.779h58.368c4.011 0 7.765 1.707 10.325 4.779l15.189 17.749h358.315c7.509 0 13.653 6.059 13.653 13.653v583.765c0 7.595-6.059 13.653-13.653 13.653v0zM153.429 180.992h306.432c16.469 0 31.744-8.192 40.789-21.931 2.56-3.755 6.741-6.059 11.349-6.059 4.523 0 8.789 2.304 11.349 6.059 9.131 13.739 24.405 21.931 40.789 21.931h306.432c7.509 0 13.653 6.059 13.653 13.653v583.765c0 7.509-6.059 13.653-13.653 13.653h-306.432c-19.627 0-38.229-7.509-52.139-20.651-13.995 13.141-32.512 20.651-52.139 20.651h-306.432c-7.509 0-13.653-6.059-13.653-13.653v-583.765c0-7.595 6.144-13.653 13.653-13.653zM166.997 764.757h292.779c16.469 0 31.744-8.192 40.789-21.931 2.56-3.84 6.741-6.059 11.349-6.059 4.523 0 8.789 2.304 11.349 6.059 9.131 13.739 24.405 21.931 40.789 21.931h292.779v-556.544h-292.693c-19.627 0-38.229-7.509-52.139-20.651-13.995 13.141-32.512 20.651-52.139 20.651h-292.864v556.544zM439.381 719.36h-213.333c-7.509 0-13.653-6.059-13.653-13.653 0-7.509 6.059-13.653 13.653-13.653h213.333c7.509 0 13.653 6.059 13.653 13.653s-6.144 13.653-13.653 13.653zM439.381 664.917h-213.333c-7.509 0-13.653-6.059-13.653-13.653 0-7.509 6.059-13.653 13.653-13.653h213.333c7.509 0 13.653 6.059 13.653 13.653s-6.144 13.653-13.653 13.653zM439.381 610.475h-213.333c-7.509 0-13.653-6.059-13.653-13.653 0-7.509 6.059-13.653 13.653-13.653h213.333c7.509 0 13.653 6.059 13.653 13.653 0 7.509-6.144 13.653-13.653 13.653zM439.381 555.947h-213.333c-7.509 0-13.653-6.059-13.653-13.653 0-7.509 6.059-13.653 13.653-13.653h213.333c7.509 0 13.653 6.059 13.653 13.653s-6.144 13.653-13.653 13.653zM439.381 501.504h-213.333c-7.509 0-13.653-6.059-13.653-13.653 0-7.509 6.059-13.653 13.653-13.653h213.333c7.509 0 13.653 6.059 13.653 13.653s-6.144 13.653-13.653 13.653zM226.048 419.84h106.667c7.509 0 13.653 6.059 13.653 13.653 0 7.509-6.059 13.653-13.653 13.653h-106.667c-7.509 0-13.653-6.059-13.653-13.653s6.144-13.653 13.653-13.653zM566.443 471.467h213.333c7.509 0 13.653 6.059 13.653 13.653s-6.059 13.653-13.653 13.653h-213.333c-7.509 0-13.653-6.059-13.653-13.653s6.144-13.653 13.653-13.653zM566.443 417.024h213.333c7.509 0 13.653 6.059 13.653 13.653s-6.059 13.653-13.653 13.653h-213.333c-7.509 0-13.653-6.059-13.653-13.653s6.144-13.653 13.653-13.653zM566.443 362.581h213.333c7.509 0 13.653 6.059 13.653 13.653 0 7.509-6.059 13.653-13.653 13.653h-213.333c-7.509 0-13.653-6.059-13.653-13.653 0.085-7.595 6.144-13.653 13.653-13.653zM566.443 308.053h213.333c7.509 0 13.653 6.059 13.653 13.653s-6.059 13.653-13.653 13.653h-213.333c-7.509 0-13.653-6.059-13.653-13.653s6.144-13.653 13.653-13.653zM566.443 253.611h106.667c7.509 0 13.653 6.059 13.653 13.653s-6.059 13.653-13.653 13.653h-106.667c-7.509 0-13.653-6.059-13.653-13.653s6.144-13.653 13.653-13.653z" />
<glyph unicode="&#xe908;" glyph-name="push" horiz-adv-x="1028" d="M29.839 838.738h957.051c16.48 0 29.839-13.36 29.839-29.839v-0.881c0-16.48-13.36-29.839-29.839-29.839h-957.051c-16.48 0-29.839 13.36-29.839 29.839v0.881c0 16.48 13.36 29.839 29.839 29.839zM29.839 113.725h957.051c16.48 0 29.839-13.36 29.839-29.839v-0.881c0-16.48-13.36-29.839-29.839-29.839h-957.051c-16.48 0-29.839 13.36-29.839 29.839v0.881c0 16.48 13.36 29.839 29.839 29.839zM993.72 478.31h-885.852l137.165 137.216c5.351 5.398 8.658 12.83 8.658 21.034 0 16.407-13.224 29.725-29.594 29.879h-0.015c-0.023 0-0.051 0-0.078 0-8.185 0-15.58-3.38-20.866-8.82l-189.211-189.222c-5.515-5.404-8.934-12.929-8.934-21.253 0-8.105 3.241-15.453 8.498-20.818l189.384-189.486c5.389-5.389 12.835-8.723 21.059-8.723 16.448 0 29.781 13.334 29.781 29.781 0 8.224-3.333 15.669-8.723 21.059l-138.445 138.496h604.017c1.478 0.001 2.931 0.109 4.35 0.316l-0.162-0.019h278.968c16.712 0 30.262 13.539 30.28 30.247v0.002c0 0.009 0 0.020 0 0.031 0 16.723-13.557 30.28-30.28 30.28 0 0 0 0 0 0v0z" />
<glyph unicode="&#xe909;" glyph-name="nosearch" d="M932.267 101.12c-2.304 0-4.437 0.939-5.973 2.56l-76.203 79.189c-9.387-7.424-19.797-13.227-30.976-17.323-12.459-4.608-25.6-6.912-38.997-6.912-62.379 0-113.237 50.773-113.237 113.237 0 62.379 50.773 113.237 113.237 113.237s113.237-50.773 113.237-113.237c0-15.189-2.987-30.037-8.875-43.947-5.291-12.544-12.715-23.893-22.101-33.792l75.861-78.933c3.157-3.328 3.072-8.533-0.256-11.691-1.451-1.536-3.499-2.389-5.717-2.389zM780.203 368.469c-53.248 0-96.597-43.349-96.597-96.597s43.349-96.597 96.597-96.597 96.597 43.349 96.597 96.597-43.349 96.597-96.597 96.597zM463.616 722.091c-6.656 0-12.032-5.376-12.032-12.032v-48.043c0-6.656 5.376-12.032 12.032-12.032s12.032 5.376 12.032 12.032v48.043c0 6.571-5.376 12.032-12.032 12.032zM463.616 626.091c-6.656 0-12.032-5.376-12.032-12.032v-308.736c0-6.656 5.376-12.032 12.032-12.032s12.032 5.376 12.032 12.032v308.736c0 6.571-5.376 12.032-12.032 12.032zM509.525 231.936c-6.144 0-11.861-2.901-15.531-7.851l-10.325-12.032h-40.448l-10.325 12.032c-3.584 4.949-9.301 7.851-15.531 7.851h-306.005v502.784c0 6.656-5.376 12.032-12.032 12.032s-12.032-5.376-12.032-12.032v-514.731c0-6.656 5.376-12.032 12.032-12.032h315.989l13.483-15.616c2.219-2.645 5.632-4.181 9.131-4.181h51.456c3.499 0 6.827 1.536 9.131 4.181l13.397 15.616h153.344c-4.352 7.595-7.936 15.616-10.667 23.979h-145.067zM839.851 734.72c0 6.656-5.376 12.032-12.032 12.032s-12.032-5.376-12.032-12.032v-336.725c8.448-2.475 16.469-5.803 24.064-9.899v346.624zM648.107 279.979h-138.581c-17.323 0-33.707-6.656-45.995-18.176-12.373 11.605-28.672 18.176-45.995 18.176h-258.133v490.752h258.219c14.507 0 27.989-7.253 36.011-19.371 2.219-3.413 5.973-5.376 9.984-5.376s7.765 2.048 9.984 5.376c8.021 12.117 21.504 19.371 36.011 19.371h258.219v-367.872c3.584 0.341 7.253 0.427 11.008 0.427 4.437 0 8.875-0.256 13.227-0.683v380.16c0 6.656-5.376 12.032-12.032 12.032h-270.507c-17.323 0-33.707-6.656-45.995-18.176-12.373 11.605-28.672 18.176-45.995 18.176h-270.165c-6.656 0-12.032-5.376-12.032-12.032v-514.731c0-6.656 5.376-12.032 12.032-12.032h270.251c14.507 0 27.989-7.253 36.011-19.371 2.219-3.328 5.973-5.376 9.984-5.376s7.765 2.048 9.984 5.376c8.021 12.117 21.504 19.371 36.011 19.371h139.435c-0.683 5.461-1.024 11.008-1.024 16.725-0.085 2.389 0 4.864 0.085 7.253zM399.531 730.709h-188.075c-6.656 0-12.032-5.376-12.032-12.032s5.376-12.032 12.032-12.032h188.16c6.656 0 12.032 5.376 12.032 12.032-0.085 6.741-5.461 12.032-12.117 12.032zM399.531 682.752h-188.075c-6.656 0-12.032-5.376-12.032-12.032s5.376-12.032 12.032-12.032h188.16c6.656 0 12.032 5.376 12.032 12.032s-5.461 12.032-12.117 12.032zM399.531 634.709h-188.075c-6.656 0-12.032-5.376-12.032-12.032s5.376-12.032 12.032-12.032h188.16c6.656 0 12.032 5.376 12.032 12.032-0.085 6.656-5.461 12.032-12.117 12.032zM399.531 586.667h-188.075c-6.656 0-12.032-5.376-12.032-12.032s5.376-12.032 12.032-12.032h188.16c6.656 0 12.032 5.376 12.032 12.032s-5.461 12.032-12.117 12.032zM399.531 538.624h-188.075c-6.656 0-12.032-5.376-12.032-12.032s5.376-12.032 12.032-12.032h188.16c6.656 0 12.032 5.376 12.032 12.032s-5.461 12.032-12.117 12.032zM305.493 490.667h-94.037c-6.656 0-12.032-5.376-12.032-12.032s5.376-12.032 12.032-12.032h94.037c6.656 0 12.032 5.376 12.032 12.032s-5.376 12.032-12.032 12.032zM511.573 512.171h188.16c6.656 0 12.032 5.376 12.032 12.032s-5.376 12.032-12.032 12.032h-188.16c-6.656 0-12.032-5.376-12.032-12.032 0-6.741 5.461-12.032 12.032-12.032zM699.733 488.192h-188.16c-6.656 0-12.032-5.376-12.032-12.032s5.376-12.032 12.032-12.032h188.16c6.656 0 12.032 5.376 12.032 12.032 0 6.741-5.376 12.032-12.032 12.032zM699.733 440.235h-188.16c-6.656 0-12.032-5.376-12.032-12.032 0.085-6.656 5.376-12.032 12.032-12.032h188.16c6.656 0 12.032 5.376 12.032 12.032 0 6.571-5.376 12.032-12.032 12.032zM699.733 392.107h-188.16c-6.656 0-12.032-5.376-12.032-12.032s5.376-12.032 12.032-12.032h177.835c6.571 6.144 13.824 11.691 21.589 16.384-1.792 4.523-6.144 7.68-11.264 7.68zM511.573 320h94.037c6.656 0 12.032 5.376 12.032 12.032s-5.376 12.032-12.032 12.032h-94.037c-6.656 0-12.032-5.376-12.032-12.032s5.461-12.032 12.032-12.032zM827.051 217.173c-1.536 0-2.987 0.683-4.181 1.877l-43.179 43.179c-1.024-1.024-2.048-2.048-2.987-3.072l-11.861-11.691c-9.472-9.472-18.859-18.859-28.331-28.331-1.195-1.195-2.645-1.792-4.181-1.792-2.56 0-4.779 1.792-5.291 4.352-0.427 1.877 0.171 3.584 1.707 5.205 3.413 3.413 6.827 6.912 10.325 10.325l32.853 32.939c-0.597 0.512-1.195 1.109-1.707 1.621-7.339 7.339-14.763 14.763-22.101 22.101l-19.2 19.2c-0.597 0.597-2.475 2.475-1.877 5.205 0.427 2.133 1.792 3.584 3.755 4.181 0.597 0.171 1.109 0.256 1.707 0.256 1.451 0 2.816-0.597 3.925-1.707l9.216-9.216 34.133-34.219c1.024 1.109 2.048 2.133 3.072 3.157l12.032 12.032c9.301 9.301 18.517 18.603 27.733 27.904 1.195 1.195 2.731 1.877 4.352 1.877 2.389 0 4.437-1.536 5.12-3.84 0.427-1.365 0.512-3.499-1.536-5.632-1.707-1.707-3.413-3.413-5.12-5.12l-38.144-38.144 0.768-0.768c1.877-1.792 3.669-3.669 5.461-5.461 12.373-12.373 24.661-24.661 37.035-37.035 1.109-1.109 1.792-2.56 1.707-4.096 0-1.451-0.597-2.816-1.707-3.84-0.853-0.853-2.133-1.451-3.499-1.451z" />
<glyph unicode="&#xe90a;" glyph-name="check" d="M1006.141 823.88c-8.825 7.886-20.535 12.706-33.371 12.706-14.908 0-28.297-6.501-37.487-16.823l-0.044-0.050-535.45-602.378-317.245 253.778c-8.508 6.849-19.445 10.993-31.35 10.993-27.723 0-50.197-22.474-50.197-50.197 0-15.818 7.317-29.928 18.75-39.128l0.097-0.076 354.447-283.535c8.509-6.858 19.45-11.009 31.361-11.009 14.909 0 28.299 6.502 37.489 16.826l0.044 0.050 567.112 637.952c7.87 8.821 12.68 20.519 12.68 33.342 0 14.891-6.486 28.266-16.788 37.455l-0.049 0.043z" />
<glyph unicode="&#xe90b;" glyph-name="cancel" d="M992.338-62.976c-11.264 0-20.183 6.595-25.713 12.124l-453.908 453.908-16.63-16.63c-10.24-10.24-20.808-20.808-30.546-31.406l-119.808-118.098-286.925-286.915c-7.475-7.475-16.128-11.264-25.713-11.264-0.046 0-0.101 0-0.156 0-15.038 0-27.567 10.745-30.328 24.976l-0.031 0.195-0.061 0.297-0.072 0.297c-1.638 7.168-1.833 17.234 11.264 31.109 11.438 11.438 23.050 23.153 34.294 34.488 22.764 22.948 46.295 46.684 69.827 69.632l350.802 351.775-19.261 16.507c-5.366 4.598-10.998 10.24-15.954 15.196l-418.263 418.253c-7.434 7.434-15.596 17.684-12.667 31.058l0.082 0.41c2.509 12.524 9.779 20.736 21.627 24.402 3.172 1.021 6.822 1.618 10.609 1.638h0.010c10.516 0 18.381-5.652 23.122-10.394l93.327-93.327 362.967-363.868 16.63 18.053c10.056 10.895 20.48 21.268 30.464 31.293l121.856 121.856c94.116 94.116 188.918 189.788 280.576 282.317l0.307 0.307c7.813 7.793 17.541 12.083 27.402 12.083 0.095 0.001 0.208 0.002 0.32 0.002 13.751 0 25.346-9.232 28.925-21.836l0.051-0.212 0.102-0.338c3.666-11.735 0.42-22.723-9.923-33.577l-454.574-454.636 24.771-24.76c12.452-11.889 24.791-24.422 36.721-36.547 5.96-6.052 12.114-12.288 18.196-18.432l375.050-375.050c4.157-4.157 11.028-12.739 10.435-23.552v-1.311c0-0.003 0-0.007 0-0.010 0-8.58-3.745-16.285-9.689-21.571l-0.029-0.026-0.348-0.317-0.338-0.328c-4.864-4.725-11.479-7.67-18.781-7.772h-0.020z" />
<glyph unicode="&#xe90c;" glyph-name="enrolled" d="M463.616 722.091c-6.656 0-12.032-5.376-12.032-12.032v-48.043c0-6.656 5.376-12.032 12.032-12.032s12.032 5.376 12.032 12.032v48.043c0 6.571-5.376 12.032-12.032 12.032zM463.616 626.091c-6.656 0-12.032-5.376-12.032-12.032v-308.736c0-6.656 5.376-12.032 12.032-12.032s12.032 5.376 12.032 12.032v308.736c0 6.571-5.376 12.032-12.032 12.032zM509.525 231.936c-6.144 0-11.861-2.901-15.531-7.851l-10.325-12.032h-40.448l-10.325 12.032c-3.584 4.949-9.301 7.851-15.531 7.851h-306.005v502.784c0 6.656-5.376 12.032-12.032 12.032s-12.032-5.376-12.032-12.032v-514.731c0-6.656 5.376-12.032 12.032-12.032h315.989l13.483-15.616c2.219-2.645 5.632-4.181 9.131-4.181h51.456c3.499 0 6.827 1.536 9.131 4.181l13.397 15.616h153.344c-4.352 7.595-7.936 15.616-10.667 23.979h-145.067zM839.851 734.72c0 6.656-5.376 12.032-12.032 12.032s-12.032-5.376-12.032-12.032v-336.725c8.448-2.475 16.469-5.803 24.064-9.899v346.624zM648.107 279.979h-138.581c-17.323 0-33.707-6.656-45.995-18.176-12.373 11.605-28.672 18.176-45.995 18.176h-258.133v490.752h258.219c14.507 0 27.989-7.253 36.011-19.371 2.219-3.413 5.973-5.376 9.984-5.376s7.765 2.048 9.984 5.376c8.021 12.117 21.504 19.371 36.011 19.371h258.219v-367.872c3.584 0.341 7.253 0.427 11.008 0.427 4.437 0 8.875-0.256 13.227-0.683v380.16c0 6.656-5.376 12.032-12.032 12.032h-270.507c-17.323 0-33.707-6.656-45.995-18.176-12.373 11.605-28.672 18.176-45.995 18.176h-270.165c-6.656 0-12.032-5.376-12.032-12.032v-514.731c0-6.656 5.376-12.032 12.032-12.032h270.251c14.507 0 27.989-7.253 36.011-19.371 2.219-3.328 5.973-5.376 9.984-5.376s7.765 2.048 9.984 5.376c8.021 12.117 21.504 19.371 36.011 19.371h139.435c-0.683 5.461-1.024 11.008-1.024 16.725-0.085 2.389 0 4.864 0.085 7.253zM399.531 730.709h-188.075c-6.656 0-12.032-5.376-12.032-12.032s5.376-12.032 12.032-12.032h188.16c6.656 0 12.032 5.376 12.032 12.032-0.085 6.741-5.461 12.032-12.117 12.032zM399.531 682.752h-188.075c-6.656 0-12.032-5.376-12.032-12.032s5.376-12.032 12.032-12.032h188.16c6.656 0 12.032 5.376 12.032 12.032s-5.461 12.032-12.117 12.032zM399.531 634.709h-188.075c-6.656 0-12.032-5.376-12.032-12.032s5.376-12.032 12.032-12.032h188.16c6.656 0 12.032 5.376 12.032 12.032-0.085 6.656-5.461 12.032-12.117 12.032zM399.531 586.667h-188.075c-6.656 0-12.032-5.376-12.032-12.032s5.376-12.032 12.032-12.032h188.16c6.656 0 12.032 5.376 12.032 12.032s-5.461 12.032-12.117 12.032zM399.531 538.624h-188.075c-6.656 0-12.032-5.376-12.032-12.032s5.376-12.032 12.032-12.032h188.16c6.656 0 12.032 5.376 12.032 12.032s-5.461 12.032-12.117 12.032zM305.493 490.667h-94.037c-6.656 0-12.032-5.376-12.032-12.032s5.376-12.032 12.032-12.032h94.037c6.656 0 12.032 5.376 12.032 12.032s-5.376 12.032-12.032 12.032zM511.573 512.171h188.16c6.656 0 12.032 5.376 12.032 12.032s-5.376 12.032-12.032 12.032h-188.16c-6.656 0-12.032-5.376-12.032-12.032 0-6.741 5.461-12.032 12.032-12.032zM699.733 488.192h-188.16c-6.656 0-12.032-5.376-12.032-12.032s5.376-12.032 12.032-12.032h188.16c6.656 0 12.032 5.376 12.032 12.032 0 6.741-5.376 12.032-12.032 12.032zM699.733 440.235h-188.16c-6.656 0-12.032-5.376-12.032-12.032 0.085-6.656 5.376-12.032 12.032-12.032h188.16c6.656 0 12.032 5.376 12.032 12.032 0 6.571-5.376 12.032-12.032 12.032zM699.733 392.107h-188.16c-6.656 0-12.032-5.376-12.032-12.032s5.376-12.032 12.032-12.032h177.835c6.571 6.144 13.824 11.691 21.589 16.384-1.792 4.523-6.144 7.68-11.264 7.68zM511.573 320h94.037c6.656 0 12.032 5.376 12.032 12.032s-5.376 12.032-12.032 12.032h-94.037c-6.656 0-12.032-5.376-12.032-12.032s5.461-12.032 12.032-12.032zM780.544 159.829c-62.72 0-113.749 51.029-113.749 113.749s50.944 113.835 113.749 113.835 113.749-51.029 113.749-113.749-51.029-113.835-113.749-113.835zM780.544 371.968c-54.272 0-98.389-44.117-98.389-98.389s44.117-98.389 98.389-98.389c54.272 0 98.389 44.117 98.389 98.389-0.085 54.272-44.203 98.389-98.389 98.389zM767.744 231.936c-1.707 0-3.499 0.597-4.779 1.707l-42.411 33.963c-3.328 2.645-3.84 7.509-1.195 10.837 1.536 1.877 3.669 2.901 6.059 2.901 1.707 0 3.499-0.597 4.779-1.707l36.693-29.355 63.061 70.912c1.451 1.621 3.584 2.56 5.717 2.56 1.877 0 3.755-0.683 5.12-1.963 1.536-1.365 2.475-3.243 2.56-5.376 0.171-2.048-0.512-4.011-1.963-5.547l-67.84-76.373c-1.451-1.621-3.584-2.56-5.803-2.56z" />
<glyph unicode="&#xe90d;" glyph-name="pdf" d="M328.704-64c-48.215 0.006-87.31 39.043-87.409 87.235v163.748h-144.415c-37.489 0.041-67.869 30.414-67.922 67.896v289.705c0.047 37.491 30.43 67.871 67.918 67.912h144.449v260.096c0.047 48.245 39.135 87.345 87.372 87.409h381.231c8.298-0.017 15.788-3.457 21.138-8.983l0.008-0.008 255.764-265.769c5.069-5.247 8.192-12.402 8.192-20.287 0-0.021 0-0.042 0-0.064v0.003-641.69c-0.111-48.185-39.198-87.204-87.398-87.204 0 0 0 0 0 0v0zM300.032 23.235c0.070-15.782 12.88-28.549 28.672-28.549 0 0 0 0 0 0h578.929c0 0 0 0 0 0 15.778 0 28.579 12.744 28.671 28.499v607.835h-240.896c-16.201 0.017-29.33 13.147-29.348 29.346v240.949h-337.357c-15.821-0.035-28.637-12.851-28.672-28.669v-260.099h318.188c37.492-0.041 67.875-30.42 67.922-67.907v-289.694c-0.052-37.487-30.433-67.861-67.918-67.901h-318.191zM96.881 553.8c-5.090 0-9.216-4.126-9.216-9.216v0-289.69c0-5.090 4.126-9.216 9.216-9.216v0h521.339c5.090 0 9.216 4.126 9.216 9.216v0 289.69c0 5.090-4.126 9.216-9.216 9.216v0zM901.12 689.664l-176.364 183.296v-183.296zM146.514 307.507v164.495h56.422c25.272 0 33.526-1.434 37.53-2.509 10.636-2.882 19.541-9.085 25.768-17.407l0.088-0.124c6.871-8.929 10.353-20.367 10.353-33.987 0-10.445-2.048-19.456-5.949-26.9-3.709-7.112-8.85-13.007-15.080-17.482l-0.147-0.1c-5.271-3.803-11.48-6.69-18.192-8.275l-0.352-0.070h-0.164c-7.711-1.526-18.33-2.273-32.451-2.273h-10.435v-55.368zM201.236 405.545c14.705 0 19.18 1.3 20.193 1.7 2.121 0.776 3.872 2.146 5.097 3.908l0.023 0.035c1.133 1.698 1.808 3.785 1.808 6.030 0 0.13-0.002 0.26-0.007 0.389l0.001-0.019c0 4.096-1.372 6.144-2.417 7.26-1.753 1.947-4.142 3.293-6.837 3.709l-0.065 0.008c-1.741 0.328-6.523 0.86-19.743 0.86h-5.427v-23.869zM305.224 313.528v164.495h63.037c13.179 0 23.132-1.024 30.413-3.154 10.327-3.054 19.134-8.58 26.055-15.906l0.026-0.028c6.995-7.492 12.456-16.512 15.823-26.497l0.151-0.516c3.502-10.24 5.284-22.897 5.284-37.55 0-13.005-1.679-24.484-4.987-34.109-4.096-11.96-10.148-21.852-17.93-29.409-6.144-5.939-14.275-10.578-24.3-13.793-7.506-2.376-16.968-3.533-28.938-3.533zM365.855 356.014c9.83 0 14.070 0.707 15.718 1.126 3.172 0.704 5.937 2.136 8.215 4.115l-0.023-0.019c1.096 1.024 3.226 3.635 5.222 10.168 1.741 5.704 2.621 13.875 2.621 24.289s-0.86 18.196-2.56 23.347c-1.526 4.628-3.564 8.192-6.072 10.537-2.572 2.333-5.799 3.989-9.372 4.661l-0.12 0.019c-2.048 0.461-7.537 1.198-22.436 1.198h-4.434v-79.421zM477.655 307.497v164.506h118.354v-42.588h-70.963v-16.968h61.256v-42.588h-61.256v-62.362h-47.391z" />
<glyph unicode="&#xe90e;" glyph-name="video" d="M441.344 302.664c-0.003 0-0.007 0-0.010 0-12.006 0-21.74 9.733-21.74 21.74 0 0.004 0 0.007 0 0.011v-0.001 247.173c0.006 12.013 9.746 21.75 21.76 21.75 4.328 0 8.361-1.264 11.75-3.442l-0.086 0.052 194.253-123.587c6.094-3.925 10.073-10.675 10.073-18.355s-3.979-14.431-9.987-18.303l-0.086-0.052-194.212-123.597c-3.308-2.126-7.347-3.389-11.681-3.389-0.012 0-0.024 0-0.036 0h0.002zM463.135 364.032l131.932 83.968-131.932 83.968zM21.576 41.093c-11.909 0.017-21.558 9.667-21.576 21.574v770.664c0.017 11.909 9.667 21.558 21.574 21.576h980.84c11.913-0.012 21.568-9.663 21.586-21.574v-770.664c-0.017-11.909-9.667-21.558-21.574-21.576h-0.002zM980.838 84.255v149.504h-131.942v-149.504zM805.734 84.255v727.501h-587.428v-727.511zM175.196 84.255v149.504h-132.035v-149.504zM980.89 276.92v149.504h-131.994v-149.504zM175.196 276.92v149.504h-132.035v-149.504zM980.89 469.586v149.504h-131.994v-149.504zM175.196 469.586v149.504h-132.035v-149.504zM980.89 662.252v149.504h-131.994v-149.504zM175.196 662.252v149.504h-132.035v-149.504z" />
<glyph unicode="&#xe90f;" glyph-name="trash" d="M260.209-64c-0.090 0-0.197 0-0.304 0-50.231 0-91.166 39.802-92.988 89.588l-0.005 0.166-30.034 782.592h-40.397c-15.448 0-27.971 12.523-27.971 27.971s12.523 27.971 27.971 27.971h268.974v44.124c0.017 28.46 23.063 51.531 51.512 51.589h190.060c28.458-0.052 51.51-23.126 51.528-51.587v-44.126h268.974c15.448 0 27.971-12.523 27.971-27.971s-12.523-27.971-27.971-27.971h-40.407l-30.034-782.592c-1.826-49.952-42.761-89.754-92.992-89.754-0.107 0-0.214 0-0.321 0.001h0.017zM222.833 27.904c0.737-20.016 17.141-35.963 37.27-35.963 0.037 0 0.074 0 0.111 0h503.577c0.034 0 0.075 0 0.116 0 20.127 0 36.529 15.948 37.259 35.897l0.002 0.067 29.972 780.442h-638.28zM602.614 864.287v39.772h-181.248v-39.772zM350.013 177.101c-15.224 0.081-27.579 12.253-27.955 27.398l-0.001 0.035-7.506 390.144c-0.003 0.16-0.005 0.348-0.005 0.537 0 15.272 12.238 27.686 27.442 27.971h0.57c15.224-0.081 27.579-12.253 27.955-27.398l0.001-0.035 7.506-390.144c0.003-0.151 0.005-0.329 0.005-0.508 0-15.262-12.212-27.671-27.398-27.99h-0.030zM512 177.101c-15.435 0.023-27.942 12.53-27.965 27.963v390.146c0 15.448 12.523 27.971 27.971 27.971s27.971-12.523 27.971-27.971v0-390.144c-0.023-15.439-12.536-27.948-27.974-27.965h-0.002zM673.454 177.101c-15.225 0.285-27.459 12.694-27.459 27.961 0 0.189 0.002 0.377 0.006 0.565v-0.028l7.506 390.144c0.359 15.165 12.689 27.334 27.884 27.433h0.594c15.207-0.307 27.418-12.708 27.418-27.96 0-0.189-0.002-0.378-0.006-0.566v0.028l-7.506-390.144c-0.376-15.18-12.731-27.352-27.947-27.433h-0.008z" />
<glyph unicode="&#xe910;" glyph-name="error" d="M512-64c-281.5 0.483-509.513 228.794-509.513 510.361 0 281.865 228.497 510.362 510.362 510.362s510.362-228.497 510.362-510.362c0-210.165-127.033-390.659-308.504-468.888l-3.314-1.271c-58.536-25.417-126.716-40.203-198.35-40.203-0.367 0-0.733 0-1.1 0.001h0.057zM512 901.233c-249.917 0-453.233-203.325-453.233-453.233s203.315-453.233 453.233-453.233 453.233 203.315 453.233 453.233-203.315 453.233-453.233 453.233zM512 374.272c-16.216 0.023-29.355 13.163-29.379 29.376v263.416c0 16.228 13.156 29.384 29.384 29.384s29.384-13.156 29.384-29.384v-263.383c-0.006-16.233-13.158-29.392-29.387-29.409h-0.002zM512 213.791c-24.132 0-43.694 19.563-43.694 43.694s19.563 43.694 43.694 43.694c24.114 0 43.665-19.533 43.694-43.64v-0.003c0-24.142-19.556-43.716-43.691-43.745h-0.003z" />
<glyph unicode="&#xe911;" glyph-name="library" d="M534.968 145.009c4.874 2.509 8.878 4.465 12.79 6.595 13.804 7.506 28.672 9.513 44.165 9.216 4.639-0.092 6.799-1.731 6.676-6.656-0.236-9.216-0.072-18.35-0.072-27.474-10.404-1.546-20.244-2.755-29.983-4.516-12.012-2.181-20.623-9.574-27.105-19.456-1.577-2.427-1.843-5.704-2.724-8.591 2.703-0.594 5.396-1.669 8.1-1.7 12.964-0.154 25.928 0 38.912 0 3.983 0 7.967-0.358 12.78-0.584 0-10.588 0.297-20.623-0.297-30.618-0.092-1.649-4.096-4.311-6.287-4.372-14.1-0.41-28.221-0.225-42.332-0.225h-538.327c-11.182 0-11.192 0-11.192 11.336v677.468c0 15.084-1.024 13.23 13.599 13.312 6.328 0 12.667-0.092 19.005-0.195 0.522 0 1.024-0.369 2.98-1.116v-648.888c0-15.739 0.522-16.22 15.831-16.22q211.282 0 422.554 0.082c4.096 0 8.192 1.29 12.288 1.976-1.894 4.28-2.97 9.216-5.837 12.718-10.752 13.087-25.385 18.043-41.912 18.053h-274.801q-43.203 0-86.415 0.061c-2.55 0-5.12 0.246-8.53 0.42-0.184 3.4-0.481 6.461-0.481 9.513q-0.082 336.998-0.102 674.017c0 11.325 0 11.264 11.418 11.264 116.654 0 233.318-0.236 349.962 0 32.399 0.082 59.392-10.301 79.677-36.229 0.819-1.024 2.314-1.546 4.393-2.877 13.169 17.336 29.86 30.269 50.985 35.748 10.578 2.744 21.883 2.683 33.495 3.963v-37.161c-7.055-0.41-13.875-0.768-20.685-1.219-24.515-1.618-43.008-20.685-43.008-44.984q-0.133-292.065 0-584.141c-0.133-2.488 0.215-4.946 0.481-8.52zM103.803 472.76v-298.168c0-13.885 0-13.875 13.967-13.875q159.007 0 317.993 0.072c16.138 0 31.304-3.174 45.486-10.854 10.24-5.55 10.875-5.304 10.875 5.827q0 286.454-0.164 572.918c-0.023 8.482-1.434 16.627-4.018 24.23l0.158-0.534c-6.984 20.767-23.9 30.72-51.354 30.802q-161.157 0.164-322.314 0.184c-8.12 0-10.824-2.406-10.803-10.803q0.389-149.862 0.174-299.796zM745.728 585.37h-28.733c-1.946 0-3.881 0.205-6.748 0.358v9.728q0 87.706 0 175.411c0 10.711-0.307 11.131-11.264 10.977-22.252-0.297-19.261 2.918-19.261-19.21q-0.102-312.371 0.154-624.742c0-8.755-2.243-12.093-11.1-11.049-2.587 0.273-5.589 0.429-8.627 0.429s-6.040-0.156-8.998-0.46l0.371 0.031c-6.748-0.563-8.991 1.761-8.888 8.714 0.379 25.344 0.133 50.688 0.133 76.042v605.379h169.503v-689.848c-10.24 0-20.214-0.41-30.136 0.379-1.761 0.143-4.454 5.192-4.485 8.008-0.338 29.952-0.246 59.914-0.246 89.866v543.508c0 12.421-0.666 13.015-13.384 13.066-20.224 0.092-18.34 0.246-18.34-18.299v-167.629c0.051-3.133 0.051-6.267 0.051-10.66zM1024 56.965c-3.164-0.154-5.437-0.369-7.711-0.369-52.716 0-105.472 0.113-158.136-0.174-7.404 0-10.486 1.782-9.892 9.626 0.625 8.264 0.143 16.599 0.143 25.672 4.444 0.215 8.1 0.553 11.756 0.563q58.767 0.102 117.524 0.123c10.762 0 11.049 0.328 11.049 11.264q0 322.324-0.154 644.649c0 8.192 1.905 11.377 10.424 10.609 7.967-0.727 16.046-0.154 25.016-0.154zM957.542 125.665h-109.097c0 10.476-0.358 20.48 0.348 30.403 0.123 1.731 4.721 4.434 7.291 4.495 17.848 0.41 35.707 0.225 53.565 0.246 11.438 0 11.469 0 11.469 11.264v599.613c0 11.489 0 11.51-11.141 11.53-17.285 0-34.58 0.44-51.835-0.184-8.192-0.297-10.609 2.58-9.923 10.332 0.584 6.574 0.215 13.24 0 19.866-0.123 5.12 2.048 7.168 7.168 7.168 31.396-0.154 62.792-0.287 94.208 0 8.018 0.072 7.793-4.639 7.782-10.138v-661.862zM812.954 838.205h-169.718c-0.164 3.277-0.44 6.308-0.451 9.339q-0.061 30.218 0 60.416c0 17.244 13.978 32.010 31.396 32.174q53.955 0.502 107.919 0c17.254-0.154 30.853-14.551 30.863-31.539 0.010-23.183-0.010-46.428-0.010-70.39zM728.064 903.434h-29.368c-19.313 0-19.046 0-19.18-19.773 0-6.758 1.946-9.052 8.847-8.94 22.999 0.369 46.008 0.154 69.018 0.133s19.681-1.413 20.163 20.552c0.133 6.052-2.243 8.192-8.1 8.1-13.804-0.215-27.607-0.072-41.38-0.072zM653.916 91.208h148.275l-74.127-135.629zM727.716 32.092c4.321 7.404 7.936 13.312 11.11 19.374 0.44 0.84-1.239 4.024-1.987 4.045-6.216 0.133-12.431-0.225-18.657-0.43 1.178-4.014 2.048-8.12 3.615-12.001 1.229-3.133 3.195-5.98 5.919-10.988zM434.053 506.757h-20.777c-81.797 0-163.594 0.205-245.391-0.082-8.909 0-11.11 2.601-10.854 11.264 0.737 24.576 0.358 24.678 25.057 24.689 80.65 0 161.29-0.102 241.94 0.164 7.875 0 10.885-1.935 10.168-10.086s-0.143-16.097-0.143-25.948zM433.992 585.779h-276.531c0 10.24-0.184 20.48 0.205 30.72 0.051 1.444 2.652 3.287 4.444 4.014s3.973 0.215 5.98 0.215c85.197 0 170.383-0.113 255.57 0.184 8.448 0 11.162-2.458 10.476-10.711-0.655-7.926-0.143-15.944-0.143-24.422zM353.423 427.776c-3.748-0.215-6.554-0.502-9.359-0.502-58.962 0-117.924 0.092-176.886-0.154-7.475 0-10.547 2.222-10.004 9.82 0.195 2.837 0.306 6.149 0.306 9.487s-0.111 6.65-0.33 9.933l0.024-0.445c-0.369 6.441 2.294 8.489 8.591 8.428 24.443-0.215 48.896 0 73.339 0 35.092 0 70.185-0.266 105.267 0 7.281 0.061 9.574-2.232 9.155-9.318-0.502-8.786-0.102-17.684-0.102-27.249zM319.877 728.003v-35.062h-162.406c0 10.435-0.399 20.675 0.399 30.833 0.123 1.628 5.571 4.035 8.571 4.096 36.219 0.276 72.438 0.184 108.657 0.184z" />
<glyph unicode="&#xe912;" glyph-name="create-course" horiz-adv-x="1299" d="M605.953 842.136c-10.656 0-19.362-8.707-19.362-19.362v-77.32c0-10.656 8.707-19.362 19.362-19.362s19.362 8.707 19.362 19.362v77.32c0 10.656-8.577 19.362-19.362 19.362zM605.953 687.626c-10.656 0-19.362-8.707-19.362-19.362v-497.186c0-10.656 8.707-19.362 19.362-19.362s19.362 8.707 19.362 19.362v497.186c0 10.526-8.577 19.362-19.362 19.362zM679.894 52.824c-9.876 0-19.103-4.678-24.95-12.605l-16.634-19.362h-65.235l-16.634 19.362c-5.718 7.927-14.944 12.605-24.95 12.605h-492.768v809.714c0 10.656-8.707 19.362-19.362 19.362s-19.362-8.707-19.362-19.362v-828.816c0-10.656 8.707-19.362 19.362-19.362h508.881l21.702-25.21c3.509-4.288 9.096-6.757 14.684-6.757h82.908c5.588 0 11.046 2.469 14.684 6.757l21.572 25.21h246.904c-7.017 12.215-12.735 25.21-17.153 38.595l-233.649-0.13zM1211.777 862.538c0 10.656-8.707 19.362-19.362 19.362s-19.362-8.707-19.362-19.362v-542.278c13.645-4.028 26.51-9.356 38.725-15.984v558.262zM903.017 130.274h-223.123c-27.939 0-54.319-10.656-74.071-29.239-19.882 18.713-46.132 29.239-74.071 29.239h-415.578v790.221h415.838c23.391 0 45.092-11.695 57.957-31.188 3.509-5.458 9.616-8.707 16.114-8.707s12.475 3.249 16.114 8.707c12.865 19.492 34.566 31.188 57.957 31.188h415.838v-592.439c5.718 0.52 11.695 0.65 17.673 0.65 7.147 0 14.294-0.39 21.312-1.040v612.191c0 10.656-8.707 19.362-19.362 19.362h-435.72c-27.939 0-54.319-10.656-74.071-29.239-19.882 18.713-46.132 29.239-74.071 29.239h-435.070c-10.656 0-19.362-8.707-19.362-19.362v-828.816c0-10.656 8.707-19.362 19.362-19.362h435.2c23.391 0 45.092-11.695 57.957-31.188 3.509-5.328 9.616-8.707 16.114-8.707s12.475 3.249 16.114 8.707c12.865 19.492 34.566 31.188 57.957 31.188h224.552c-1.040 8.837-1.689 17.673-1.689 26.899-0.13 3.769 0 7.797 0.13 11.695zM502.774 856.041h-302.782c-10.656 0-19.362-8.707-19.362-19.362s8.707-19.362 19.362-19.362h302.912c10.656 0 19.362 8.707 19.362 19.362-0.13 10.786-8.707 19.362-19.492 19.362zM502.774 778.851h-302.782c-10.656 0-19.362-8.707-19.362-19.362s8.707-19.362 19.362-19.362h302.912c10.656 0 19.362 8.707 19.362 19.362s-8.707 19.362-19.492 19.362zM502.774 701.401h-302.782c-10.656 0-19.362-8.707-19.362-19.362s8.707-19.362 19.362-19.362h302.912c10.656 0 19.362 8.707 19.362 19.362-0.13 10.786-8.707 19.362-19.492 19.362zM502.774 624.081h-302.782c-10.656 0-19.362-8.707-19.362-19.362s8.707-19.362 19.362-19.362h302.912c10.656 0 19.362 8.707 19.362 19.362s-8.707 19.362-19.492 19.362zM502.774 546.761h-302.782c-10.656 0-19.362-8.707-19.362-19.362s8.707-19.362 19.362-19.362h302.912c10.656 0 19.362 8.707 19.362 19.362s-8.707 19.362-19.492 19.362zM351.383 469.442h-151.391c-10.656 0-19.362-8.707-19.362-19.362s8.707-19.362 19.362-19.362h151.391c10.656 0 19.362 8.707 19.362 19.362 0 10.786-8.707 19.362-19.362 19.362zM683.143 504.138h303.042c10.656 0 19.362 8.707 19.362 19.362s-8.707 19.362-19.362 19.362h-303.042c-10.656 0-19.362-8.707-19.362-19.362 0-10.786 8.837-19.362 19.362-19.362zM986.185 465.543h-303.042c-10.656 0-19.362-8.707-19.362-19.362s8.707-19.362 19.362-19.362h303.042c10.656 0 19.362 8.707 19.362 19.362 0 10.786-8.577 19.362-19.362 19.362zM986.185 388.353h-303.042c-10.656 0-19.362-8.707-19.362-19.362 0.13-10.656 8.707-19.362 19.362-19.362h303.042c10.656 0 19.362 8.707 19.362 19.362 0 10.526-8.577 19.362-19.362 19.362zM986.185 310.774h-303.042c-10.656 0-19.362-8.707-19.362-19.362s8.707-19.362 19.362-19.362h286.408c10.526 9.876 22.221 18.843 34.826 26.38-2.989 7.277-9.876 12.345-18.193 12.345zM683.143 194.729h151.391c10.656 0 19.362 8.707 19.362 19.362s-8.707 19.362-19.362 19.362h-151.391c-10.656 0-19.362-8.707-19.362-19.362s8.837-19.362 19.362-19.362zM1116.264-63.22c-100.971 0-183.228 82.128-183.228 183.228s81.998 183.358 183.228 183.358c101.23 0 183.228-82.128 183.228-183.228s-82.128-183.358-183.228-183.358zM1116.264 278.416c-87.456 0-158.408-71.082-158.408-158.408s71.082-158.538 158.408-158.538c87.326 0 158.538 71.082 158.538 158.408-0.13 87.456-71.212 158.538-158.538 158.538zM1026.859 112.211c-3.769 0-6.627 2.989-6.627 6.757s2.859 6.627 6.627 6.627h80.309v80.309c0 3.769 2.989 6.757 6.757 6.757s6.627-2.989 6.627-6.757v-80.309h80.309c3.769 0 6.757-2.859 6.757-6.627s-2.989-6.757-6.757-6.757h-80.309v-80.309c0-3.769-2.859-6.757-6.627-6.757s-6.757 2.989-6.757 6.757v80.309h-80.309z" />
<glyph unicode="&#xe924;" glyph-name="team" d="M512 560.876c-35.932 0-70.728 25.692-97.976 72.356-22.006 37.673-35.676 83.21-35.676 118.784q0 0.44 0 0.891c3.036 71.406 61.662 128.146 133.539 128.146 70.796 0 128.735-55.045 133.355-124.671l0.021-0.403c0.228-1.193 0.358-2.566 0.358-3.968 0-0.005 0-0.011 0-0.016v0.001c0-35.011-13.998-81.613-35.666-118.784-27.238-46.623-62.034-72.335-97.956-72.335zM422.451 751.596c0.123-27.372 12.012-65.925 29.696-96.133 18.432-31.621 40.858-50.493 59.894-50.493s41.421 18.903 59.894 50.555c17.193 29.46 28.918 66.806 29.624 93.962q-0.092 0.819-0.133 1.659c-1.864 46.285-39.588 83.968-85.873 85.873-1.078 0.046-2.343 0.073-3.614 0.073-48.031 0-87.229-37.814-89.45-85.296l-0.007-0.199zM741.734 247.296c-12.176 0-22.047 9.871-22.047 22.047v0c0 114.514-93.184 207.688-207.688 207.688s-207.688-93.184-207.688-207.688c0-12.176-9.871-22.047-22.047-22.047s-22.047 9.871-22.047 22.047v0c0 139.055 112.726 251.781 251.781 251.781s251.781-112.726 251.781-251.781v0c0-12.176-9.871-22.047-22.047-22.047v0zM807.608 510.966c-31.601 0-62.095 22.886-85.852 64.43-18.565 32.471-30.556 72.817-30.556 102.789 0 64.341 52.159 116.5 116.5 116.5s116.5-52.159 116.5-116.5v0c0-1.113-0.082-2.206-0.24-3.275l0.015 0.121c-0.788-29.86-12.595-68.608-30.525-99.932-23.726-41.349-54.211-64.133-85.842-64.133zM807.7 750.582c-39.971-0.047-72.36-32.436-72.407-72.403v-0.004c0-47.503 39.485-123.126 72.315-123.126 14.725 0 32.512 15.688 47.585 41.984 14.787 25.795 24.73 58.368 24.73 81.152 0.001 0.881 0.053 1.749 0.153 2.603l-0.010-0.104c-1.428 38.885-33.278 69.871-72.373 69.908h-0.004zM1001.953 244.582v0c-12.176 0-22.047 9.871-22.047 22.047 0 0.004 0 0.007 0 0.011v-0.001c-0.070 39.3-13.197 75.52-35.271 104.569l0.312-0.428c-31.819 41.737-81.565 68.399-137.539 68.399-39.304 0-75.538-13.147-104.544-35.282l0.419 0.307c-3.655-2.79-8.287-4.471-13.312-4.471-12.18 0-22.053 9.874-22.053 22.053 0 7.155 3.407 13.514 8.688 17.543l0.054 0.039c35.889 27.394 81.372 43.891 130.709 43.891 70.278 0 132.738-33.474 172.306-85.348l0.386-0.527c27.341-35.934 43.838-81.413 43.94-130.741v-0.024c-0.006-12.172-9.874-22.036-22.047-22.036v0zM216.392 510.966c-31.631 0-62.116 22.774-85.842 64.133-17.93 31.273-29.696 70.072-30.525 99.932-0.143 0.948-0.225 2.041-0.225 3.154v0c0 64.341 52.159 116.5 116.5 116.5s116.5-52.159 116.5-116.5v0c0-29.972-11.991-70.318-30.556-102.789-23.716-41.544-54.241-64.43-85.852-64.43zM143.944 680.673c0.090-0.745 0.142-1.61 0.143-2.486v-0.002c0-22.743 9.933-55.357 24.73-81.152 15.073-26.286 32.86-41.984 47.585-41.984 32.829 0 72.315 75.622 72.315 123.126-0.128 39.892-32.496 72.182-72.407 72.182-39.035 0-70.856-30.889-72.352-69.558l-0.004-0.136zM22.047 244.582c-12.172 0-22.041 9.865-22.047 22.036v0.001c0.090 49.347 16.573 94.827 44.291 131.303l-0.392-0.538c39.953 52.401 102.413 85.875 172.691 85.875 49.337 0 94.821-16.497 131.236-44.276l-0.527 0.386c5.334-4.068 8.741-10.427 8.741-17.582 0-12.18-9.874-22.053-22.053-22.053-5.025 0-9.657 1.681-13.366 4.51l0.054-0.039c-75.827 57.405-184.228 42.404-241.664-33.423-21.762-28.621-34.888-64.841-34.959-104.124v-0.017c0-0.003 0-0.007 0-0.010 0-12.176-9.871-22.047-22.047-22.047v0zM511.826 14.848c-114.027 0.308-210.245 76.205-241.208 180.21l-0.456 1.785c-0.554 1.84-0.873 3.955-0.873 6.144 0 12.178 9.872 22.050 22.050 22.050 9.988 0 18.426-6.642 21.136-15.75l0.040-0.156c25.885-87.408 105.462-150.091 199.68-150.091s173.795 62.682 199.305 148.62l0.375 1.471c2.751 9.264 11.188 15.906 21.176 15.906 12.178 0 22.050-9.872 22.050-22.050 0-2.189-0.319-4.304-0.913-6.3l0.040 0.156c-31.558-105.982-128.102-181.949-242.396-181.996h-0.005zM512 126.464c-12.176 0-22.047 9.871-22.047 22.047v0 217.743c0 12.176 9.871 22.047 22.047 22.047s22.047-9.871 22.047-22.047v0-217.764c-0.012-12.167-9.878-22.026-22.047-22.026v0zM620.882 235.325h-217.764c-12.176 0-22.047 9.871-22.047 22.047s9.871 22.047 22.047 22.047h217.764c12.176 0 22.047-9.871 22.047-22.047s-9.871-22.047-22.047-22.047v0z" />
<glyph unicode="&#xe925;" glyph-name="reports" d="M70.124 285.839c24.084-23.132 46.612-44.81 69.14-66.458 3.297-3.164 6.922-6.001 10.24-9.216 4.096-3.963 7.096-3.389 10.598 1.024 12.554 15.841 25.405 31.457 38.124 47.176q54.446 67.4 108.974 134.779 17.244 21.33 34.427 42.711c1.495 1.853 3.072 3.645 5.12 6.062l132.7-127.14 238.377 401.418c13.097-7.547 25.508-14.776 38.001-21.862q34.509-19.569 69.1-39.004c1.024-0.594 2.048-1.198 3.072-1.884 10.824-7.506 11.633-7.055 16.312 5.12 9.882 25.774 20.204 51.374 30.147 77.128 11.592 30.003 22.989 60.099 34.478 90.112 0.778 2.048 1.72 3.983 2.519 5.99 1.403 3.553 3.318 4.567 7.25 2.918 14.817-6.205 29.768-12.104 44.739-17.951 8.52-3.328 9.318-4.803 5.919-13.384-9.482-23.89-19.067-47.749-28.457-71.68q-28.518-72.755-56.945-145.551c-3.072-7.823-5.878-15.739-9.011-23.552-2.867-7.168-4.301-7.475-11.131-3.492-15.575 9.083-31.078 18.268-46.725 27.208-23.552 13.466-47.299 26.624-70.81 40.243-4.598 2.662-6.779 1.423-9.216-2.611-15.206-25.661-30.587-51.2-45.834-76.8q-37.827-63.56-75.561-127.171-47.718-80.732-95.232-161.587c-8.55-14.459-17.551-28.672-26.911-43.899-3.912 3.072-7.485 5.376-10.506 8.274-20.091 19.323-40.049 38.871-60.109 58.184q-31.744 30.536-63.601 60.897c-6.144 5.919-6.973 5.888-12.288-0.676q-66.816-82.944-133.632-165.888c-15.872-19.671-32.051-39.086-47.759-58.88-3.83-4.823-6.369-4.239-10.24-0.43-13.896 13.66-28.006 27.095-41.984 40.643-12.964 12.544-25.979 25.037-38.758 37.765-2.048 2.048-4.239 5.181-4.27 7.844-0.379 27.218-0.256 54.405-0.256 83.62zM556.667-29.932h-382.423c-23.378 0-46.746 0-70.124 0-58.614 0.154-103.506 44.442-103.803 103.188-0.358 71.332-0.143 142.664-0.143 214.016q0 174.95 0 349.901 0 139.889-0.154 279.777c0 6.902 2.048 9.605 9.032 9.032 2.979-0.233 6.451-0.365 9.953-0.365 2.853 0 5.686 0.088 8.495 0.261l-0.385-0.019c5.468 0.287 7.066-2.048 7.025-7.229-0.154-20.244 0.061-40.479 0.061-60.723q0-203.141 0-406.282 0-187.238-0.143-374.467c0-32.942 15.227-57.651 43.489-68.229 8.172-3.060 17.616-4.831 27.473-4.833h0.001c97.352-0.297 194.693-0.102 292.045-0.102q141.312 0 282.624-0.092 152.177 0 304.353 0.072c10.844 0 21.699-0.317 32.532 0 5.827 0.164 7.68-2.181 7.383-7.68-0.204-3.047-0.32-6.605-0.32-10.19 0-3.025 0.083-6.031 0.246-9.016l-0.018 0.415c0.348-5.714-1.71-7.578-7.424-7.516-21.924 0.225-43.858 0-65.782 0h-393.994zM68.086 488.561c18.125-4.516 34.488-8.315 50.678-12.749 7.629-2.048 13.722-1.434 20.756 3.072 77.599 49.695 155.494 98.918 233.155 148.48 5.181 3.308 7.895 2.775 12.022-1.372q72.008-72.428 144.435-144.497c3.553-3.543 4.096-6.308 1.321-10.557-4.977-7.598-9.431-15.534-15.002-24.832-14.080 14.459-27.218 28.17-40.591 41.636-31.744 31.939-63.662 63.693-95.304 95.724-3.809 3.86-6.4 4.004-10.875 1.157q-112.916-71.916-226.007-143.596c-4.28-2.724-7.977-3.983-13.312-2.519-18.084 4.925-36.332 9.277-54.61 13.445-4.905 1.116-6.902 3.144-6.738 8.192 0.287 9.073 0.072 18.145 0.072 28.416zM931.092 237.189l-166.973 190.874-98.519-130.683c-2.796 2.611-5.048 4.598-7.168 6.717-12.954 12.943-25.713 26.092-38.912 38.789-3.994 3.85-4.096 6.81-1.208 11.162 4.864 7.414 9.216 15.155 15.084 24.863l27.648-31.15 100.588 133.448c2.109-2.048 4.096-3.584 5.683-5.448q92.539-105.769 185.078-211.528c3.011-3.43 3.451-5.693-0.369-8.796-6.871-5.612-13.373-11.633-20.931-18.248z" />
<glyph unicode="&#xe926;" glyph-name="add" d="M36.454 411.556c-20.163 0-36.178 16.548-36.178 36.7 0 0.067-0.001 0.147-0.001 0.226 0 19.856 16.097 35.953 35.953 35.953 0.079 0 0.159 0 0.238-0.001h438.813v438.866c0.093 20.239 16.48 36.619 36.713 36.7h0.008c20.163 0 36.178-16.548 36.178-36.7v-438.856h438.825c20.163 0 36.7-16.026 36.7-36.178-0.093-20.232-16.469-36.608-36.691-36.7h-438.813v-438.856c0-20.163-16.026-36.7-36.178-36.7-20.232 0.093-36.608 16.469-36.7 36.691v438.854z" />
<glyph unicode="&#xe927;" glyph-name="download" d="M480.348 242.534q0 3.932 0 7.875 0 248.187 0 496.374c0 59.525 0.317 119.060-0.174 178.586-0.205 24.003 19.118 37.632 38.072 34.079 15.196-2.847 25.692-16.097 25.743-33.608q0.154-55.685 0.072-111.36 0-282.481 0-564.961c0-2.386 0.205-4.762 0.399-8.96 3.205 2.796 5.212 4.383 7.045 6.144q96.655 93.399 193.249 186.849c10.332 10.015 21.985 14.203 35.84 8.96 22.006-8.315 27.392-35.901 10.24-52.941-16.384-16.251-33.167-32.102-49.766-48.128q-102.093-98.58-204.145-197.151c-9.114-8.796-19.743-14.602-32.461-10.363-7.265 2.655-13.478 6.631-18.635 11.682l0.009-0.009q-109.138 104.888-217.825 210.237c-11.551 11.162-23.214 22.221-34.683 33.464-9.779 9.585-13.066 21.176-8.499 34.15 4.372 12.411 13.773 19.395 26.808 20.972 10.65 1.28 19.354-3.021 26.89-10.312q52.664-50.995 105.411-101.908 44.421-42.926 88.873-85.821c1.731-1.669 3.625-3.154 5.448-4.721zM512.522-63.754c-148.255 0-296.52 0.225-444.774-0.246-21.637-0.072-36.127 15.247-35.942 35.84 0.553 63.15 0.256 126.3 0.184 189.44 0 14.694 5.386 26.030 19.282 32.154 18.985 8.366 41.636-3.523 43.418-24.115 1.69-19.548 0.932-39.332 1.024-59.013 0.102-34.181 0.123-68.362-0.133-102.533 0-6.072 1.536-8.12 7.977-8.11q408.453 0.256 816.896 0c6.707 0 8.192 2.048 8.192 8.438q-0.348 78.090 0 156.18c0.102 24.023 24.146 38.912 45.619 28.447 11.612-5.673 17.715-15.718 17.766-28.396q0.369-98.12 0-196.25c-0.072-19.057-14.141-31.826-34.028-31.826q-222.771-0.031-445.481-0.010z" />
<glyph unicode="&#xe928;" glyph-name="move" d="M935.936 473.6h-343.040c-14.336 0-25.6-11.264-25.6-25.6s11.264-25.6 25.6-25.6h343.040l-87.040-87.040c-10.24-10.24-10.24-26.624 0-35.84 5.12-5.12 11.264-8.192 18.432-8.192 6.144 0 13.312 3.072 18.432 8.192l131.072 130.048c9.216 10.24 9.216 26.624 0 36.864l-131.072 131.072c-10.24 10.24-26.624 10.24-36.864 0-9.216-10.24-9.216-26.624 0-36.864l87.040-87.040zM512 392.704c-14.336 0-25.6-11.264-25.6-25.6v-343.040l-87.040 87.040c-10.24 10.24-26.624 10.24-36.864 0s-10.24-26.624 0-35.84l131.072-131.072c5.12-5.12 11.264-8.192 18.432-8.192 6.144 0 13.312 3.072 18.432 8.192l131.072 131.072c9.216 9.216 9.216 25.6 0 35.84-10.24 10.24-26.624 10.24-36.864 0l-87.040-87.040v343.040c0 14.336-11.264 25.6-25.6 25.6zM399.36 784.896l87.040 88.064v-344.064c0-14.336 11.264-25.6 25.6-25.6s25.6 11.264 25.6 25.6v344.064l87.040-88.064c5.12-5.12 12.288-7.168 18.432-7.168 7.168 0 13.312 2.048 18.432 7.168 10.24 10.24 10.24 26.624 0 36.864l-131.072 131.072c-10.24 9.216-26.624 9.216-35.84 0l-131.072-131.072c-10.24-10.24-10.24-26.624 0-36.864 9.216-10.24 25.6-10.24 35.84 0zM138.24 299.52c5.12-5.12 12.288-8.192 18.432-8.192 7.168 0 13.312 3.072 18.432 8.192 10.24 9.216 10.24 25.6 0 35.84l-87.040 87.040h343.040c14.336 0 25.6 11.264 25.6 25.6s-11.264 25.6-25.6 25.6h-343.040l87.040 87.040c9.216 10.24 9.216 26.624 0 36.864-10.24 10.24-26.624 10.24-36.864 0l-131.072-131.072c-5.12-5.12-7.168-11.264-7.168-18.432v0c0-6.144 2.048-13.312 7.168-18.432l131.072-130.048z" />
<glyph unicode="&#xe929;" glyph-name="code" d="M638.976 821.76l-34.816 9.216c-2.048 1.024-4.096 1.024-5.12 1.024v0c-3.072 0-6.144-1.024-8.192-2.048-4.096-2.048-7.168-6.144-9.216-11.264l-208.896-721.92c-1.024-5.12-1.024-9.216 2.048-14.336 2.048-4.096 6.144-7.168 10.24-8.192l34.816-9.216c5.12-2.048 9.216-1.024 13.312 1.024s7.168 6.144 9.216 11.264l208.896 721.92c1.024 5.12 1.024 9.216-2.048 14.336-2.048 4.096-6.144 7.168-10.24 8.192zM1018.88 461.312l-261.12 260.096c-4.096 4.096-8.192 6.144-13.312 6.144-4.096 0-9.216-2.048-12.288-6.144l-28.672-27.648c-3.072-4.096-5.12-8.192-5.12-13.312 0-4.096 2.048-9.216 5.12-12.288l220.16-220.16-220.16-220.16c-3.072-3.072-5.12-8.192-5.12-12.288 0-5.12 2.048-9.216 5.12-13.312l28.672-27.648c3.072-4.096 8.192-6.144 12.288-6.144 5.12 0 9.216 2.048 13.312 6.144l261.12 260.096c3.072 4.096 5.12 8.192 5.12 13.312s-2.048 9.216-5.12 13.312zM325.632 680.448c0 5.12-2.048 9.216-5.12 13.312l-28.672 27.648c-3.072 4.096-8.192 6.144-12.288 6.144-5.12 0-9.216-2.048-13.312-6.144l-261.12-260.096c-3.072-4.096-5.12-8.192-5.12-13.312s2.048-9.216 5.12-13.312l261.12-260.096c4.096-4.096 8.192-6.144 13.312-6.144 4.096 0 9.216 2.048 12.288 6.144l28.672 27.648c3.072 4.096 5.12 8.192 5.12 13.312 0 4.096-2.048 9.216-5.12 12.288l-220.16 220.16 220.16 220.16c3.072 3.072 5.12 8.192 5.12 12.288z" />
<glyph unicode="&#xe92a;" glyph-name="quiz" d="M947.2 523.776c-3.072-72.704-20.48-141.312-54.272-205.824-13.312-23.552-43.008-26.624-57.344-6.144-8.192 12.288-8.192 24.576-1.024 37.888 19.456 36.864 33.792 76.8 39.936 118.784 13.312 96.256-6.144 185.344-61.44 265.216-54.272 77.824-129.024 128-223.232 149.504-141.312 32.768-291.84-24.576-376.832-144.384-154.624-216.064-37.888-519.168 222.208-573.44 108.544-23.552 209.92 0 299.008 67.584 12.288 9.216 25.6 14.336 40.96 7.168 15.36-8.192 18.432-22.528 18.432-37.888-2.048-86.016-36.864-155.648-105.472-207.872-32.768-24.576-69.632-43.008-108.544-56.32-9.216-3.072-18.432-3.072-25.6 5.12-6.144 7.168-6.144 16.384-2.048 25.6 15.36 36.864 13.312 74.752 0 111.616-3.072 10.24-9.216 11.264-18.432 11.264-78.848-4.096-153.6 11.264-223.232 49.152-123.904 66.56-201.728 168.96-226.304 308.224-36.864 208.896 75.776 408.576 275.456 481.28 163.84 59.392 314.368 28.672 444.416-87.040 70.656-61.44 113.664-140.288 132.096-232.448 5.12-28.672 7.168-57.344 11.264-87.040zM509.952 295.424c-18.432 0-33.792 15.36-32.768 33.792 0 19.456 15.36 34.816 33.792 33.792 18.432 0 33.792-15.36 33.792-33.792 0-19.456-15.36-33.792-34.816-33.792zM476.16 471.552c0 13.312 0 27.648 0 40.96 1.024 23.552 12.288 36.864 35.84 37.888 30.72 2.048 55.296 20.48 63.488 48.128 8.192 26.624-1.024 56.32-23.552 72.704-20.48 16.384-44.032 19.456-68.608 9.216-23.552-11.264-36.864-29.696-39.936-56.32 0-5.12 0-11.264-2.048-16.384-5.12-15.36-20.48-24.576-37.888-22.528-15.36 2.048-27.648 15.36-27.648 31.744-3.072 65.536 48.128 124.928 114.688 135.168 64.512 11.264 135.168-29.696 152.576-102.4 16.384-68.608-22.528-136.192-90.112-159.744-6.144-2.048-8.192-5.12-8.192-11.264 0-16.384 0-33.792 0-51.2 0-21.504-14.336-35.84-34.816-35.84-19.456 0-32.768 15.36-33.792 36.864 0 7.168 0 14.336 0 21.504s0 14.336 0 21.504v0z" />
<glyph unicode="&#xe92b;" glyph-name="course" d="M581.632 474.624c3.072-6.144 9.216-9.216 15.36-9.216 3.072 0 5.12 0 8.192 1.024 1.024 1.024 101.376 52.224 150.528 67.584 9.216 3.072 14.336 12.288 11.264 21.504s-12.288 14.336-21.504 11.264c-52.224-16.384-151.552-67.584-155.648-69.632-8.192-4.096-12.288-14.336-8.192-22.528zM596.992 670.208c3.072 0 5.12 0 8.192 1.024 1.024 1.024 101.376 52.224 150.528 67.584 9.216 3.072 14.336 12.288 11.264 21.504s-12.288 14.336-21.504 11.264c-52.224-16.384-151.552-67.584-155.648-69.632-8.192-4.096-12.288-14.336-8.192-22.528 3.072-6.144 9.216-9.216 15.36-9.216zM1006.592 704c-9.216 0-16.384-7.168-16.384-17.408v-665.6c0-27.648-23.552-51.2-51.2-51.2h-409.6v39.936c24.576 8.192 89.088 28.672 153.6 28.672 148.48 0 248.832-32.768 249.856-32.768 5.12-2.048 11.264-1.024 15.36 2.048 5.12 3.072 7.168 8.192 7.168 13.312v751.616c0 7.168-5.12 14.336-13.312 16.384 0 0-13.312 3.072-35.84 7.168-9.216 2.048-18.432-4.096-20.48-13.312-1.024-9.216 5.12-18.432 14.336-20.48 8.192-1.024 15.36-3.072 21.504-4.096v-714.752c-38.912 10.24-124.928 28.672-238.592 28.672-74.752 0-147.456-24.576-169.984-32.768-20.48 9.216-80.896 32.768-154.624 32.768-117.76 0-214.016-19.456-256-28.672v715.776c33.792 8.192 135.168 29.696 256 29.696 62.464 0 115.712-19.456 136.192-27.648v-671.744c0-6.144 4.096-12.288 9.216-14.336 5.12-3.072 11.264-3.072 17.408 0 1.024 1.024 169.984 101.376 320.512 151.552 7.168 2.048 11.264 9.216 11.264 16.384v699.392c0 6.144-2.048 11.264-7.168 14.336-4.096 3.072-10.24 4.096-15.36 2.048-137.216-51.2-274.432-137.216-276.48-138.24-8.192-5.12-10.24-15.36-5.12-23.552s15.36-10.24 23.552-5.12c1.024 1.024 120.832 75.776 246.784 125.952v-662.528c-116.736-40.96-238.592-106.496-289.792-136.192v653.312c0 6.144-4.096 12.288-10.24 15.36-2.048 1.024-72.704 35.84-160.768 35.84-154.624 0-272.384-33.792-277.504-34.816-7.168-2.048-12.288-9.216-12.288-16.384v-751.616c0-5.12 2.048-10.24 6.144-13.312 3.072-2.048 7.168-3.072 10.24-3.072 2.048 0 3.072 0 5.12 0 1.024 1.024 118.784 33.792 268.288 33.792 62.464 0 115.712-19.456 136.192-27.648v-40.96h-409.6c-27.648 0-51.2 23.552-51.2 51.2v665.6c0 10.24-7.168 17.408-16.384 17.408-10.24 0-17.408-7.168-17.408-17.408v-665.6c0-47.104 37.888-84.992 84.992-84.992h854.016c47.104 0 84.992 37.888 84.992 84.992v665.6c0 10.24-7.168 17.408-17.408 17.408zM581.632 577.024c3.072-6.144 9.216-9.216 15.36-9.216 3.072 0 5.12 0 8.192 1.024 1.024 1.024 101.376 52.224 150.528 67.584 9.216 3.072 14.336 12.288 11.264 21.504s-12.288 14.336-21.504 11.264c-52.224-16.384-151.552-67.584-155.648-69.632-8.192-4.096-12.288-14.336-8.192-22.528zM581.632 372.224c3.072-6.144 9.216-9.216 15.36-9.216 3.072 0 5.12 0 8.192 1.024 1.024 1.024 101.376 52.224 150.528 67.584 9.216 3.072 14.336 12.288 11.264 21.504s-12.288 14.336-21.504 11.264c-52.224-16.384-151.552-67.584-155.648-69.632-8.192-4.096-12.288-14.336-8.192-22.528zM413.696 643.584c-105.472 24.576-225.28-7.168-230.4-8.192-9.216-3.072-14.336-12.288-12.288-21.504 2.048-7.168 9.216-12.288 16.384-12.288 2.048 0 3.072 0 5.12 1.024 1.024 0 115.712 29.696 212.992 7.168 9.216-2.048 18.432 4.096 20.48 13.312s-3.072 18.432-12.288 20.48zM413.696 541.184c-105.472 24.576-225.28-7.168-230.4-8.192-9.216-3.072-14.336-12.288-12.288-21.504 2.048-7.168 9.216-12.288 16.384-12.288 2.048 0 3.072 0 5.12 1.024 1.024 0 115.712 29.696 212.992 7.168 9.216-2.048 18.432 4.096 20.48 13.312s-3.072 18.432-12.288 20.48zM581.632 269.824c3.072-6.144 9.216-9.216 15.36-9.216 3.072 0 5.12 0 8.192 1.024 1.024 1.024 101.376 52.224 150.528 67.584 9.216 3.072 14.336 12.288 11.264 21.504s-12.288 14.336-21.504 11.264c-52.224-16.384-151.552-67.584-155.648-69.632-8.192-4.096-12.288-14.336-8.192-22.528zM413.696 438.784c-105.472 24.576-225.28-7.168-230.4-8.192-9.216-3.072-14.336-12.288-12.288-21.504 2.048-7.168 9.216-12.288 16.384-12.288 2.048 0 3.072 0 5.12 1.024 1.024 0 115.712 29.696 212.992 7.168 9.216-2.048 18.432 4.096 20.48 13.312s-3.072 18.432-12.288 20.48zM413.696 233.984c-105.472 24.576-225.28-7.168-230.4-8.192-9.216-3.072-14.336-12.288-12.288-21.504 2.048-7.168 9.216-12.288 16.384-12.288 2.048 0 3.072 0 5.12 1.024 1.024 0 115.712 29.696 212.992 7.168 9.216-2.048 18.432 4.096 20.48 13.312s-3.072 18.432-12.288 20.48zM413.696 336.384c-105.472 24.576-225.28-7.168-230.4-8.192-9.216-3.072-14.336-12.288-12.288-21.504 2.048-7.168 9.216-12.288 16.384-12.288 2.048 0 3.072 0 5.12 1.024 1.024 0 115.712 29.696 212.992 7.168 9.216-2.048 18.432 4.096 20.48 13.312s-3.072 18.432-12.288 20.48z" />
<glyph unicode="&#xe92c;" glyph-name="note" horiz-adv-x="837" d="M170.971 669.714h221.867c9.438 0 17.067 7.663 17.067 17.143s-7.629 17.143-17.067 17.143h-221.867c-9.438 0-17.067-7.663-17.067-17.143s7.629-17.143 17.067-17.143zM170.971 140.952h221.867c9.438 0 17.067 7.663 17.067 17.143s-7.629 17.143-17.067 17.143h-221.867c-9.438 0-17.067-7.663-17.067-17.143s7.629-17.143 17.067-17.143zM170.962 567.619h494.648c9.432 0 17.057 7.663 17.057 17.143s-7.624 17.143-17.057 17.143h-494.648c-9.432 0-17.057-7.663-17.057-17.143s7.624-17.143 17.057-17.143zM170.962 362.667h494.648c9.432 0 17.057 7.663 17.057 17.143s-7.624 17.143-17.057 17.143h-494.648c-9.432 0-17.057-7.663-17.057-17.143s7.624-17.143 17.057-17.143zM170.962 243.048h494.648c9.432 0 17.057 7.663 17.057 17.143s-7.624 17.143-17.057 17.143h-494.648c-9.432 0-17.057-7.663-17.057-17.143s7.624-17.143 17.057-17.143zM170.952 464.762h238.667c9.427 0 17.048 7.663 17.048 17.143s-7.62 17.143-17.048 17.143h-238.667c-9.427 0-17.048-7.663-17.048-17.143s7.62-17.143 17.048-17.143zM666.328 499.048h-119.704c-9.457 0-17.101-7.663-17.101-17.143s7.644-17.143 17.101-17.143h119.704c9.457 0 17.101 7.663 17.101 17.143s-7.644 17.143-17.101 17.143zM465.924 494.205c-3.257-3.254-4.971-7.559-4.971-12.225 0-4.477 1.869-8.953 4.971-12.225 3.24-3.254 7.526-4.993 12.171-4.993 4.629 0 8.914 1.894 12.171 4.993 3.086 3.271 4.971 7.576 4.971 12.225 0 4.666-1.731 8.971-4.971 12.225-6.514 6.371-17.829 6.543-24.343 0zM614.624 925.867h-102.437v17.067c0 9.438-7.632 17.067-17.073 17.067h-153.656c-9.441 0-17.073-7.629-17.073-17.067v-17.067h-324.385v-989.867h836.571v989.867h-221.948zM478.041 925.867v-51.2h-119.51v51.2h119.51zM324.385 891.733v-51.2h187.802v51.2h85.364v-68.267h-358.531v68.267h85.364zM204.875 806.4v-17.067h426.822v51.2h119.51v-819.2h-665.843v819.2h119.51v-34.133zM802.426-29.867h-768.28v921.6h170.729v-17.067h-153.656v-887.467h734.134v887.467h-153.656v17.067h170.729v-921.6z" />
<glyph unicode="&#xe92d;" glyph-name="doc" horiz-adv-x="967" d="M300.032-64c-48.208 0.006-87.313 39.037-87.409 87.245v163.738h-144.415c-37.488 0.039-67.871 30.414-67.922 67.901v289.7c0.045 37.492 30.43 67.872 67.922 67.912h144.445v260.096c0.045 48.244 39.134 87.347 87.378 87.409h381.225c7.974-0.016 15.602-3.259 21.146-8.991l255.764-265.769c5.27-5.461 8.208-12.758 8.192-20.347v-641.69c-0.107-48.193-39.205-87.204-87.398-87.204h-578.929zM271.36 23.235c0.068-15.787 12.885-28.549 28.672-28.549h578.929c15.771 0 28.582 12.737 28.672 28.508v607.826h-240.896c-16.201 0.017-29.331 13.146-29.348 29.348v240.947h-337.357c-15.821-0.034-28.638-12.851-28.672-28.672v-260.096h318.188c37.492-0.039 67.877-30.42 67.922-67.912v-289.69c-0.051-37.488-30.434-67.862-67.922-67.901h-318.188v-163.809zM67.871 561.664c-5.090 0-9.216-4.126-9.216-9.216v-289.69c0-5.090 4.126-9.216 9.216-9.216h521.339c5.090 0 9.216 4.126 9.216 9.216v289.69c0 5.090-4.126 9.216-9.216 9.216h-521.339zM872.448 689.664l-176.364 183.296v-183.296h176.364zM237.074 403.82c0-26.84-7.388-47.52-22.165-62.040s-35.548-21.78-62.315-21.78h-52.030v160.82h55.66c25.813 0 45.742-6.6 59.785-19.8s21.065-32.267 21.065-57.2zM191.974 402.28c0 14.74-2.915 25.667-8.745 32.78s-14.685 10.67-26.565 10.67h-12.65v-90.090h9.68c13.2 0 22.88 3.832 29.040 11.495s9.24 19.378 9.24 35.145zM416.374 400.63c0-27.060-6.637-47.63-19.91-61.71s-32.707-21.12-58.3-21.12c-25.227 0-44.568 7.077-58.025 21.23s-20.185 34.76-20.185 61.82c0 26.767 6.692 47.208 20.075 61.325s32.835 21.175 58.355 21.175c25.593 0 44.99-7.003 58.19-21.010s19.8-34.577 19.8-61.71zM305.714 400.63c0-31.093 10.817-46.64 32.45-46.64 11 0 19.158 3.777 24.475 11.33s7.975 19.323 7.975 35.31c0 16.060-2.695 27.922-8.085 35.585s-13.438 11.495-24.145 11.495c-21.78 0-32.67-15.693-32.67-47.080zM517.024 447.49c-10.34 0-18.407-4.235-24.2-12.705s-8.69-20.148-8.69-35.035c0-30.947 11.77-46.42 35.31-46.42 7.113 0 14.007 0.99 20.68 2.97s13.383 4.363 20.13 7.15v-36.74c-13.42-5.94-28.6-8.91-45.54-8.91-24.273 0-42.882 7.040-55.825 21.12s-19.415 34.43-19.415 61.050c0 16.647 3.135 31.277 9.405 43.89s15.29 22.312 27.060 29.095c11.77 6.783 25.612 10.175 41.525 10.175 17.38 0 33.99-3.777 49.83-11.33l-13.31-34.21c-5.94 2.787-11.88 5.133-17.82 7.040s-12.32 2.86-19.14 2.86z" />
<glyph unicode="&#xe92e;" glyph-name="zip" horiz-adv-x="967" d="M300.032-64c-48.208 0.006-87.313 39.037-87.409 87.245v163.738h-144.415c-37.488 0.039-67.871 30.414-67.922 67.901v289.7c0.045 37.492 30.43 67.872 67.922 67.912h144.445v260.096c0.045 48.244 39.134 87.347 87.378 87.409h381.225c7.974-0.016 15.602-3.259 21.146-8.991l255.764-265.769c5.27-5.461 8.208-12.758 8.192-20.347v-641.69c-0.107-48.193-39.205-87.204-87.398-87.204h-578.929zM271.36 23.235c0.068-15.787 12.885-28.549 28.672-28.549h578.929c15.771 0 28.582 12.737 28.672 28.508v607.826h-240.896c-16.201 0.017-29.331 13.146-29.348 29.348v240.947h-337.357c-15.821-0.034-28.638-12.851-28.672-28.672v-260.096h318.188c37.492-0.039 67.877-30.42 67.922-67.912v-289.69c-0.051-37.488-30.434-67.862-67.922-67.901h-318.188v-163.809zM67.871 561.664c-5.090 0-9.216-4.126-9.216-9.216v-289.69c0-5.090 4.126-9.216 9.216-9.216h521.339c5.090 0 9.216 4.126 9.216 9.216v289.69c0 5.090-4.126 9.216-9.216 9.216h-521.339zM872.448 689.664l-176.364 183.296v-183.296h176.364zM281.514 320h-125.29v26.84l69.63 98.89h-67.98v35.090h121.88v-26.73l-69.63-99h71.39v-35.090zM304.504 320v160.82h43.67v-160.82h-43.67zM499.644 429.67c0-17.967-5.298-31.845-15.895-41.635s-25.648-14.685-45.155-14.685h-12.21v-53.35h-43.45v160.82h55.66c20.313 0 35.567-4.437 45.76-13.31s15.29-21.487 15.29-37.84zM426.384 408.77h7.92c6.527 0 11.715 1.833 15.565 5.5s5.775 8.727 5.775 15.18c0 10.853-6.013 16.28-18.040 16.28h-11.22v-36.96z" />
<glyph unicode="&#xe92f;" glyph-name="other" horiz-adv-x="967" d="M300.032-64c-48.208 0.006-87.313 39.037-87.409 87.245v163.738h-144.415c-37.488 0.039-67.871 30.414-67.922 67.901v289.7c0.045 37.492 30.43 67.872 67.922 67.912h144.445v260.096c0.045 48.244 39.134 87.347 87.378 87.409h381.225c7.974-0.016 15.602-3.259 21.146-8.991l255.764-265.769c5.27-5.461 8.208-12.758 8.192-20.347v-641.69c-0.107-48.193-39.205-87.204-87.398-87.204h-578.929zM271.36 23.235c0.068-15.787 12.885-28.549 28.672-28.549h578.929c15.771 0 28.582 12.737 28.672 28.508v607.826h-240.896c-16.201 0.017-29.331 13.146-29.348 29.348v240.947h-337.357c-15.821-0.034-28.638-12.851-28.672-28.672v-260.096h318.188c37.492-0.039 67.877-30.42 67.922-67.912v-289.69c-0.051-37.488-30.434-67.862-67.922-67.901h-318.188v-163.809zM67.871 561.664c-5.090 0-9.216-4.126-9.216-9.216v-289.69c0-5.090 4.126-9.216 9.216-9.216h521.339c5.090 0 9.216 4.126 9.216 9.216v289.69c0 5.090-4.126 9.216-9.216 9.216h-521.339zM872.448 689.664l-176.364 183.296v-183.296h176.364zM145.408 508.416h365.568v-17.408h-365.568v17.408zM145.408 446.976h314.368v-17.408h-314.368v17.408zM145.408 385.536h286.72v-17.408h-286.72v17.408zM145.408 324.096h365.568v-17.408h-365.568v17.408z" />
<glyph unicode="&#xe930;" glyph-name="notification" d="M983.753 189.294c-92.046 80.006-177.227 192.885-177.227 474.711 0 163.213-132.115 295.995-294.508 295.995-162.415 0-294.548-132.782-294.548-295.995 0-282.082-85.149-394.849-177.276-474.787-25.542-22.359-40.194-54.558-40.194-88.348 0-18.596 15-33.673 33.502-33.673h317.937c15.509-74.811 81.603-131.197 160.561-131.197s145.056 56.381 160.561 131.197h317.937c18.502 0 33.502 15.076 33.502 33.673 0 34.063-14.687 66.312-40.247 88.424zM512 3.345c-41.722 0-77.372 26.619-91.041 63.852h182.083c-13.669-37.233-49.32-63.852-91.041-63.852zM80.2 134.542c1.219 1.329 2.519 2.595 3.891 3.794 140.455 121.877 200.379 279.087 200.379 525.669 0 126.079 102.079 228.65 227.543 228.65 125.446 0 227.503-102.571 227.503-228.65 0-246.357 59.933-403.563 200.46-525.7 1.371-1.19 2.671-2.442 3.895-3.762h-863.671z" />
<glyph unicode="&#xe931;" glyph-name="zoom-in" horiz-adv-x="987" d="M542.012 573.497h-115.951v115.951c0 10.667-8.658 19.325-19.325 19.325s-19.325-8.658-19.325-19.325v-115.951h-115.951c-10.667 0-19.325-8.658-19.325-19.325s8.658-19.325 19.325-19.325h115.951v-115.951c0-10.667 8.658-19.325 19.325-19.325s19.325 8.658 19.325 19.325v115.951h115.951c10.667 0 19.325 8.658 19.325 19.325s-8.658 19.325-19.325 19.325zM981.098-30.857l-287.152 298.631c73.242 73.455 118.618 174.719 118.618 286.398 0 223.785-182.043 405.828-405.828 405.828s-405.828-182.043-405.828-405.828c0-223.785 182.043-405.828 405.828-405.828 98.23 0 188.381 35.114 258.648 93.379l287.848-299.366c3.788-3.962 8.851-5.933 13.933-5.933 4.831 0 9.643 1.797 13.392 5.392 7.691 7.402 7.923 19.634 0.541 27.326zM39.559 554.172c0 202.469 164.708 367.177 367.177 367.177s367.177-164.708 367.177-367.177c0-202.469-164.708-367.177-367.177-367.177s-367.177 164.708-367.177 367.177z" />
<glyph unicode="&#xe932;" glyph-name="zoom-out" horiz-adv-x="987" d="M541.513 573.45h-270.585c-10.669 0-19.328-8.659-19.328-19.328s8.659-19.328 19.328-19.328h270.585c10.669 0 19.328 8.659 19.328 19.328s-8.659 19.328-19.328 19.328zM980.653-30.979l-287.187 298.668c73.251 73.464 118.632 174.74 118.632 286.434 0 223.812-182.065 405.878-405.878 405.878s-405.878-182.065-405.878-405.878c0-223.812 182.065-405.878 405.878-405.878 98.242 0 188.404 35.118 258.679 93.39l287.883-299.402c3.788-3.962 8.852-5.934 13.935-5.934 4.832 0 9.644 1.797 13.394 5.392 7.692 7.402 7.924 19.637 0.541 27.329zM38.998 554.122c0 202.494 164.728 367.223 367.223 367.223s367.223-164.728 367.223-367.223c0-202.494-164.728-367.223-367.223-367.223s-367.223 164.728-367.223 367.223z" />
<glyph unicode="&#xe933;" glyph-name="image" horiz-adv-x="967" d="M300.032-64c-48.208 0.006-87.313 39.037-87.409 87.245v163.738h-144.415c-37.488 0.039-67.871 30.414-67.922 67.901v289.7c0.045 37.492 30.43 67.872 67.922 67.912h144.445v260.096c0.045 48.244 39.134 87.347 87.378 87.409h381.225c7.974-0.016 15.602-3.259 21.146-8.991l255.764-265.769c5.27-5.461 8.208-12.758 8.192-20.347v-641.69c-0.107-48.193-39.205-87.204-87.398-87.204h-578.929zM271.36 23.235c0.068-15.787 12.885-28.549 28.672-28.549h578.929c15.771 0 28.582 12.737 28.672 28.508v607.826h-240.896c-16.201 0.017-29.331 13.146-29.348 29.348v240.947h-337.357c-15.821-0.034-28.638-12.851-28.672-28.672v-260.096h318.188c37.492-0.039 67.877-30.42 67.922-67.912v-289.69c-0.051-37.488-30.434-67.862-67.922-67.901h-318.188v-163.809zM67.871 561.664c-5.090 0-9.216-4.126-9.216-9.216v-289.69c0-5.090 4.126-9.216 9.216-9.216h521.339c5.090 0 9.216 4.126 9.216 9.216v289.69c0 5.090-4.126 9.216-9.216 9.216h-521.339zM872.448 689.664l-176.364 183.296v-183.296h176.364zM109.977 328.192v168.13h45.655v-168.13h-45.655zM265.227 328.192l-34.385 121.095h-1.035c1.61-20.623 2.415-36.647 2.415-48.070v-73.025h-40.25v168.13h60.49l35.075-119.37h0.92l34.385 119.37h60.605v-168.13h-41.745v73.715c0 3.833 0.057 8.088 0.172 12.765s0.632 16.138 1.552 34.385h-1.035l-33.925-120.865h-43.24zM487.177 426.632h72.565v-90.62c-19.703-6.747-41.362-10.12-64.975-10.12-25.913 0-45.942 7.513-60.087 22.54s-21.218 36.455-21.218 64.285c0 27.14 7.743 48.262 23.23 63.365s37.183 22.655 65.090 22.655c10.58 0 20.566-0.997 29.957-2.99s17.576-4.523 24.553-7.59l-14.375-35.65c-12.113 5.98-25.415 8.97-39.905 8.97-13.263 0-23.517-4.312-30.762-12.938s-10.868-20.949-10.868-36.972c0-15.717 3.277-27.696 9.832-35.937s16.004-12.363 28.348-12.363c6.747 0 12.957 0.652 18.63 1.955v26.335h-30.015v35.075z" />
</font>
</defs>
</svg>
